<svg width="52" height="53" viewBox="0 0 52 53" fill="none" xmlns="http://www.w3.org/2000/svg">
<path d="M46.7766 26.6504C46.7766 32.1307 44.5995 37.3865 40.7244 41.2616C36.8493 45.1367 31.5935 47.3137 26.1133 47.3137C20.633 47.3137 15.3773 45.1367 11.5021 41.2616C7.62702 37.3865 5.45 32.1307 5.45 26.6504C5.45 21.1702 7.62702 15.9144 11.5021 12.0393C15.3773 8.16423 20.633 5.98721 26.1133 5.98721C28.0763 5.98721 29.9876 6.27133 31.7957 6.78791L35.8509 2.73275C32.7625 1.46084 29.4533 0.811302 26.1133 0.821405C22.7214 0.821405 19.3626 1.48949 16.2289 2.78752C13.0952 4.08555 10.2478 5.98811 7.84935 8.38656C3.00545 13.2304 0.28418 19.8002 0.28418 26.6504C0.28418 33.5007 3.00545 40.0705 7.84935 44.9143C10.2478 47.3128 13.0952 49.2153 16.2289 50.5134C19.3626 51.8114 22.7214 52.4795 26.1133 52.4795C32.9636 52.4795 39.5333 49.7582 44.3772 44.9143C49.2211 40.0705 51.9424 33.5007 51.9424 26.6504H46.7766ZM15.5492 21.6913L11.9073 25.359L23.5304 36.9821L49.3595 11.153L45.7176 7.4853L23.5304 29.6724L15.5492 21.6913Z" fill="#F14545"/>
</svg>
