<svg width="30" height="30" viewBox="0 0 30 30" fill="none" xmlns="http://www.w3.org/2000/svg">
<path d="M15 19.2857C17.3669 19.2857 19.2857 17.3669 19.2857 15C19.2857 12.6331 17.3669 10.7143 15 10.7143C12.6331 10.7143 10.7143 12.6331 10.7143 15C10.7143 17.3669 12.6331 19.2857 15 19.2857Z" fill="#4BA6AC"/>
<path fill-rule="evenodd" clip-rule="evenodd" d="M29.9989 14.2489L29.9989 14.2423C30.0009 12.4273 30.0029 10.6236 29.9008 8.80832C29.7844 6.40669 29.2366 4.27525 27.4804 2.51907C25.7205 0.759128 23.5929 0.215011 21.1913 0.098682C19.3727 -0.00345098 17.5686 -0.00145137 15.756 0.000557546C15.5041 0.000836768 15.252 0.00111617 14.9997 0.00111617C14.7469 0.00111617 14.4944 0.000836644 14.242 0.000557361C12.4271 -0.0014515 10.6234 -0.00344785 8.80815 0.098682C6.40657 0.215011 4.27517 0.762881 2.51902 2.51907C0.759114 4.27901 0.215007 6.40669 0.0986802 8.80832C-0.00345093 10.6269 -0.00145135 12.4311 0.000557536 14.2437C0.000836753 14.4956 0.00111615 14.7477 0.00111615 15C0.00111615 15.2523 0.000836832 15.5044 0.000557654 15.7564C-0.00145127 17.5696 -0.00345292 19.3763 0.0986802 21.1917C0.215007 23.5933 0.762867 25.7247 2.51902 27.4809C4.27893 29.2409 6.40657 29.785 8.80815 29.9013C10.6267 30.0035 12.4308 30.0015 14.2433 29.9994L14.2502 29.9994C14.4998 29.9992 14.7497 29.9989 14.9997 29.9989C15.2525 29.9989 15.5051 29.9992 15.7574 29.9994C17.5723 30.0015 19.3761 30.0034 21.1913 29.9013C23.5929 29.785 25.7243 29.2371 27.4804 27.4809C29.2403 25.721 29.7844 23.5933 29.9008 21.1917C30.0045 19.4063 30.0018 17.632 29.9992 15.8472C29.9987 15.5651 29.9983 15.2827 29.9983 15C29.9983 14.7494 29.9986 14.499 29.9989 14.2489ZM15 23.5714C19.7339 23.5714 23.5714 19.7339 23.5714 15C23.5714 10.2661 19.7339 6.42857 15 6.42857C10.2661 6.42857 6.42857 10.2661 6.42857 15C6.42857 19.7339 10.2661 23.5714 15 23.5714ZM22.8571 7.85714C23.6461 7.85714 24.2857 7.21755 24.2857 6.42857C24.2857 5.63959 23.6461 5 22.8571 5C22.0682 5 21.4286 5.63959 21.4286 6.42857C21.4286 7.21755 22.0682 7.85714 22.8571 7.85714Z" fill="#4BA6AC"/>
</svg>
