<svg width="108" height="43" viewBox="0 0 108 43" fill="none" xmlns="http://www.w3.org/2000/svg">
<path d="M30.9986 8.67357C30.9986 9.07099 30.7116 9.54569 30.1376 10.0977C28.857 11.2678 27.3998 13.3984 25.766 16.4895C24.4192 19.0727 23.3594 21.4572 22.5866 23.643C20.732 28.964 19.606 34.2408 19.2086 39.4735C19.0982 40.8866 18.6235 41.7145 17.7845 41.9574C17.1442 42.1561 15.0798 42.2554 11.5914 42.2554C9.49389 42.2554 8.24643 42.2334 7.84902 42.1892C5.97232 41.9905 5.03397 41.4606 5.03397 40.5995C5.03397 37.4202 6.06063 33.4018 8.11396 28.5445C9.54908 25.1664 11.4589 21.413 13.8434 17.2843C15.8967 13.7517 16.9234 12.0075 16.9234 12.0516C16.9234 11.8308 16.4597 11.7204 15.5324 11.7204C13.8986 11.7204 11.4479 11.8088 8.1802 11.9854C4.91253 12.1399 2.46179 12.2172 0.827955 12.2172C0.275985 12.2172 0 11.9412 0 11.3893C0 10.749 0.110394 9.85479 0.331182 8.70669C0.574049 7.35988 0.717561 6.46569 0.761719 6.02412C0.850034 5.03057 0.894192 3.37466 0.894192 1.05639C0.894192 0.482337 1.39096 0.195312 2.38451 0.195312C3.31182 0.195312 4.51512 0.272588 5.9944 0.42714C8.02565 0.647928 9.23998 0.769361 9.6374 0.79144C13.435 1.07846 19.9482 1.22198 29.1771 1.22198C30.1707 1.22198 30.7116 1.74083 30.7999 2.77853C30.9324 4.34613 30.9986 6.31114 30.9986 8.67357Z" fill="#F3C872"/>
<path d="M64.7461 27.5178C64.7461 37.3871 58.6634 42.3217 46.498 42.3217C44.7317 42.3217 42.3692 42.134 39.4107 41.7587C35.569 41.2729 33.5487 40.6878 33.35 40.0034C33.2617 39.7164 33.2176 38.7339 33.2176 37.0559C33.2176 36.1286 33.328 34.8922 33.5487 33.3466C33.8358 31.3595 34.167 30.366 34.5423 30.366C34.6527 30.366 34.8404 30.4322 35.1053 30.5647C37.7548 31.8894 40.7685 32.5518 44.1466 32.5518C49.026 32.5518 51.4657 30.9621 51.4657 27.7828C51.4657 26.0386 50.5715 24.7249 48.7831 23.8417C47.3922 23.1352 45.7252 22.7819 43.7823 22.7819C42.9654 22.7819 41.74 22.8813 40.1061 23.08C38.4944 23.2787 37.2801 23.3781 36.4631 23.3781C35.6904 23.3781 35.304 23.0248 35.304 22.3183C35.304 20.1987 35.3923 16.9642 35.569 12.6146C35.7677 8.26512 35.867 5.03057 35.867 2.91101C35.867 2.49151 36.0216 2.06097 36.3307 1.6194C36.6619 1.15574 37.0262 0.879755 37.4236 0.79144C37.9093 0.703125 40.9783 0.658967 46.6304 0.658967C53.0554 0.658967 57.3718 0.681046 59.5797 0.725204C60.1758 0.747283 60.4738 1.00119 60.4738 1.48692C60.4738 2.74541 60.3414 4.46756 60.0764 6.65336C59.7452 9.45737 59.3478 10.8594 58.8842 10.8594L58.5199 10.8263C53.5301 10.3847 50.417 10.1639 49.1805 10.1639C46.7519 10.1639 45.4492 10.2964 45.2726 10.5613C44.8973 11.2237 44.7096 12.4711 44.7096 14.3037C44.7096 14.5907 44.7648 14.8115 44.8752 14.966C45.4271 14.966 46.2993 14.9108 47.4915 14.8004C48.6175 14.69 49.4896 14.6349 50.1078 14.6349C54.2145 14.6349 57.6257 15.7278 60.3414 17.9136C63.2779 20.2539 64.7461 23.4553 64.7461 27.5178Z" fill="#F3C872"/>
<path d="M107.402 21.3578C107.402 27.0542 105.559 31.9446 101.872 36.0292C98.052 40.2683 93.3161 42.3879 87.6639 42.3879C82.0117 42.3879 77.2869 40.2683 73.4893 36.0292C69.7801 31.9446 67.9254 27.0542 67.9254 21.3578C67.9254 15.6394 69.7801 10.76 73.4893 6.7196C77.2869 2.54671 82.0117 0.460258 87.6639 0.460258C93.3161 0.460258 98.0409 2.54671 101.838 6.7196C105.548 10.7821 107.402 15.6615 107.402 21.3578ZM95.1155 21.3578C95.1155 19.0837 94.4531 17.1077 93.1284 15.4297C91.7154 13.6413 89.8939 12.7471 87.6639 12.7471C85.3898 12.7471 83.5572 13.6303 82.1663 15.3966C80.8636 17.0304 80.2123 19.0175 80.2123 21.3578C80.2123 23.654 80.8636 25.6522 82.1663 27.3522C83.5793 29.1848 85.4119 30.1011 87.6639 30.1011C89.8276 30.1011 91.6381 29.1627 93.0953 27.286C94.4421 25.5639 95.1155 23.5878 95.1155 21.3578Z" fill="#F3C872"/>
<path d="M12.3912 38.6754C14.4787 26.4696 17.6687 20.5852 24.7825 7.37109H5.21729" stroke="#4BA6AC" stroke-linecap="round" stroke-linejoin="round"/>
<path d="M55.4347 5.4502H41.0869L39.7825 19.1458C39.7825 19.1458 57.3912 15.2328 57.3912 28.2763C57.3912 41.3198 37.1738 36.1024 37.1738 36.1024" stroke="#4BA6AC" stroke-linecap="round" stroke-linejoin="round"/>
<path d="M102.373 21.2915C102.373 30.4395 95.8248 37.748 87.8726 37.748C79.9203 37.748 73.3726 30.4395 73.3726 21.2915C73.3726 12.1434 79.9203 4.83496 87.8726 4.83496C95.8248 4.83496 102.373 12.1434 102.373 21.2915Z" stroke="#4BA6AC"/>
</svg>
