<?xml version="1.0" encoding="UTF-8"?> <svg xmlns="http://www.w3.org/2000/svg" width="43" height="43" viewBox="0 0 43 43" fill="none"> <path d="M21.5 0C9.62651 0 0 9.68463 0 21.6298C0 32.4241 7.86119 41.3711 18.1414 43V27.8836H12.6798V21.6298H18.1414V16.8643C18.1414 11.439 21.3516 8.44728 26.2606 8.44728C28.6129 8.44728 31.0771 8.8691 31.0771 8.8691V14.1884H28.3592C25.6929 14.1884 24.8586 15.8584 24.8586 17.5695V21.6255H30.8169L29.8643 27.8793H24.8586V42.9957C35.1388 41.3754 43 32.4263 43 21.6298C43 9.68463 33.3735 0 21.5 0V0Z" fill="#02404F"></path> </svg> 