<svg width="30" height="30" viewBox="0 0 30 30" fill="none" xmlns="http://www.w3.org/2000/svg">
<path d="M15 0C6.71617 0 0 6.74506 0 15.0645C0 22.5825 5.48455 28.8138 12.6568 29.9482V19.4201H8.84639V15.0645H12.6568V11.7455C12.6568 7.96691 14.8965 5.88328 18.3213 5.88328C19.9625 5.88328 21.6817 6.17707 21.6817 6.17707V9.8818H19.7855C17.9253 9.8818 17.3432 11.0449 17.3432 12.2366V15.0615H21.5002L20.8356 19.4171H17.3432V29.9452C24.5155 28.8168 30 22.584 30 15.0645C30 6.74506 23.2838 0 15 0V0Z" fill="#4BA6AC"/>
</svg>
