<svg width="65" height="52" viewBox="0 0 65 52" fill="none" xmlns="http://www.w3.org/2000/svg">
<path d="M0 15C0 6.71573 6.71573 0 15 0H60.2683C66.6476 22.36 66.5064 30.68 60.2683 52H15C6.71573 52 0 45.2843 0 37V15Z" fill="#4BA6AC"/>
<path d="M33 11C24.7162 11 18 17.7451 18 26.0645C18 33.5825 23.4845 39.8138 30.6568 40.9482V30.4201H26.8464V26.0645H30.6568V22.7455C30.6568 18.9669 32.8965 16.8833 36.3213 16.8833C37.9625 16.8833 39.6817 17.1771 39.6817 17.1771V20.8818H37.7855C35.9253 20.8818 35.3432 22.0449 35.3432 23.2366V26.0615H39.5002L38.8356 30.4171H35.3432V40.9452C42.5155 39.8168 48 33.584 48 26.0645C48 17.7451 41.2838 11 33 11V11Z" fill="white"/>
</svg>
