<svg width="65" height="52" viewBox="0 0 65 52" fill="none" xmlns="http://www.w3.org/2000/svg">
<path d="M65 15C65 6.71573 58.2843 0 50 0H4.73169C-1.64763 22.36 -1.50643 30.68 4.73169 52H50C58.2843 52 65 45.2843 65 37V15Z" fill="#4BA6AC"/>
<path d="M33 31.2857C35.3669 31.2857 37.2857 29.3669 37.2857 27C37.2857 24.6331 35.3669 22.7143 33 22.7143C30.6331 22.7143 28.7143 24.6331 28.7143 27C28.7143 29.3669 30.6331 31.2857 33 31.2857Z" fill="white"/>
<path fill-rule="evenodd" clip-rule="evenodd" d="M47.9989 26.2489L47.9989 26.2423C48.0009 24.4273 48.0029 22.6236 47.9008 20.8083C47.7844 18.4067 47.2366 16.2753 45.4804 14.5191C43.7205 12.7591 41.5929 12.215 39.1913 12.0987C37.3727 11.9965 35.5686 11.9985 33.756 12.0006C33.5041 12.0008 33.252 12.0011 32.9997 12.0011C32.7469 12.0011 32.4944 12.0008 32.242 12.0006C30.4271 11.9985 28.6234 11.9966 26.8082 12.0987C24.4066 12.215 22.2752 12.7629 20.519 14.5191C18.7591 16.279 18.215 18.4067 18.0987 20.8083C17.9965 22.6269 17.9985 24.4311 18.0006 26.2437C18.0008 26.4956 18.0011 26.7477 18.0011 27C18.0011 27.2523 18.0008 27.5044 18.0006 27.7564C17.9985 29.5696 17.9965 31.3763 18.0987 33.1917C18.215 35.5933 18.7629 37.7247 20.519 39.4809C22.2789 41.2409 24.4066 41.785 26.8082 41.9013C28.6267 42.0035 30.4308 42.0015 32.2433 41.9994L32.2502 41.9994C32.4998 41.9992 32.7497 41.9989 32.9997 41.9989C33.2525 41.9989 33.5051 41.9992 33.7574 41.9994C35.5723 42.0015 37.3761 42.0034 39.1913 41.9013C41.5929 41.785 43.7243 41.2371 45.4804 39.4809C47.2403 37.721 47.7844 35.5933 47.9008 33.1917C48.0045 31.4063 48.0018 29.632 47.9992 27.8472C47.9987 27.5651 47.9983 27.2827 47.9983 27C47.9983 26.7494 47.9986 26.499 47.9989 26.2489ZM33 35.5714C37.7339 35.5714 41.5714 31.7339 41.5714 27C41.5714 22.2661 37.7339 18.4286 33 18.4286C28.2661 18.4286 24.4286 22.2661 24.4286 27C24.4286 31.7339 28.2661 35.5714 33 35.5714ZM40.8571 19.8571C41.6461 19.8571 42.2857 19.2175 42.2857 18.4286C42.2857 17.6396 41.6461 17 40.8571 17C40.0682 17 39.4286 17.6396 39.4286 18.4286C39.4286 19.2175 40.0682 19.8571 40.8571 19.8571Z" fill="white"/>
</svg>
