<?xml version="1.0" encoding="UTF-8"?> <svg xmlns="http://www.w3.org/2000/svg" width="42" height="42" viewBox="0 0 42 42" fill="none"> <path d="M21 27C24.3137 27 27 24.3137 27 21C27 17.6863 24.3137 15 21 15C17.6863 15 15 17.6863 15 21C15 24.3137 17.6863 27 21 27Z" fill="#02404F"></path> <path fill-rule="evenodd" clip-rule="evenodd" d="M41.9984 19.9485L41.9984 19.9392C42.0012 17.3982 42.004 14.873 41.8611 12.3316C41.6982 8.96937 40.9312 5.98535 38.4726 3.52669C36.0087 1.06278 33.03 0.301015 29.6678 0.138155C27.1218 -0.00483137 24.596 -0.00203192 22.0585 0.000780564C21.7058 0.00117147 21.3528 0.00156264 20.9996 0.00156264C20.6457 0.00156264 20.2921 0.0011713 19.9388 0.000780306C17.3979 -0.00203209 14.8728 -0.00482699 12.3314 0.138155C8.9692 0.301015 5.98524 1.06803 3.52663 3.52669C1.06276 5.99061 0.301009 8.96937 0.138152 12.3316C-0.0048313 14.8777 -0.00203189 17.4035 0.000780551 19.9411C0.00117145 20.2938 0.00156261 20.6468 0.00156261 21C0.00156261 21.3532 0.00117156 21.7061 0.000780716 22.0589C-0.00203177 24.5975 -0.00483409 27.1268 0.138152 29.6684C0.301009 33.0306 1.06801 36.0146 3.52663 38.4733C5.9905 40.9372 8.9692 41.699 12.3314 41.8618C14.8774 42.0048 17.4032 42.002 19.9407 41.9992L19.9503 41.9992C20.2998 41.9988 20.6495 41.9984 20.9996 41.9984C21.3536 41.9984 21.7071 41.9988 22.0604 41.9992C24.6013 42.002 27.1265 42.0048 29.6678 41.8618C33.03 41.699 36.014 40.932 38.4726 38.4733C40.9365 36.0094 41.6982 33.0306 41.8611 29.6684C42.0062 27.1688 42.0025 24.6848 41.9988 22.1861C41.9982 21.7912 41.9977 21.3958 41.9977 21C41.9977 20.6491 41.998 20.2987 41.9984 19.9485ZM21 33C27.6274 33 33 27.6274 33 21C33 14.3726 27.6274 9 21 9C14.3726 9 9 14.3726 9 21C9 27.6274 14.3726 33 21 33ZM32 11C33.1046 11 34 10.1046 34 9C34 7.89543 33.1046 7 32 7C30.8954 7 30 7.89543 30 9C30 10.1046 30.8954 11 32 11Z" fill="#02404F"></path> </svg> 